<svg xmlns="http://www.w3.org/2000/svg" width="50" height="50" viewBox="0 0 50 50">
    <g fill="none" fill-rule="evenodd">
        <path fill="#FCD2CA" d="M9.221 41.846h9.982v-18.39H9.221zM31.492 41.846h9.983v-18.39h-9.983z"/>
        <path fill="#FCD2CA" d="M30.576 23.456H42.39V18.05H30.576zM8.112 23.193h11.813v-5.406H8.112z"/>
        <path fill="#E87A5F" d="M31.407 22.93H42.39V18.05H31.407v4.881zm0 18.305h9.762V24.151h-9.762v17.084zm-21.966 0h9.762V24.151H9.441v17.084zM8.22 22.93h10.982V18.05H8.22v4.881zm8.743-13.763a3.226 3.226 0 0 1 2.29-.947c.828 0 1.657.315 2.288.947.974.974 2.215 5.058 2.847 7.424-2.366-.632-6.45-1.873-7.425-2.847a3.24 3.24 0 0 1 0-4.577zm11.968 0a3.227 3.227 0 0 1 2.29-.947c.829 0 1.658.315 2.289.947a3.24 3.24 0 0 1-.001 4.577c-.975.975-5.059 2.215-7.425 2.847.631-2.366 1.872-6.45 2.847-7.424zm-8.508 32.068h9.762V24.151h-9.762v17.084zm0-18.305h9.762V18.05h-9.762v4.881zM43.61 16.83H29.606c1.945-.635 3.983-1.44 4.767-2.223a4.463 4.463 0 0 0 0-6.302 4.462 4.462 0 0 0-6.304 0c-1.066 1.067-2.17 4.453-2.832 6.77-.661-2.317-1.766-5.703-2.832-6.77a4.462 4.462 0 0 0-6.304 0 4.461 4.461 0 0 0 0 6.302c.784.784 2.822 1.588 4.768 2.223H7v7.322h1.22v18.305h34.17V24.15h1.22v-7.322z"/>
    </g>
</svg>
